<svg width="123" height="123" viewBox="0 0 123 123" fill="none" xmlns="http://www.w3.org/2000/svg">
<g filter="url(#filter0_d_1962_279874)">
<g clip-path="url(#clip0_1962_279874)">
<rect x="12" y="12" width="101" height="101" rx="50.5" fill="#428EFF"/>
<rect width="125" height="125" fill="white"/>
<g filter="url(#filter1_d_1962_279874)">
<rect x="12.2916" y="12.2917" width="100.625" height="100.625" rx="50.3125" fill="white"/>
<mask id="mask0_1962_279874" style="mask-type:alpha" maskUnits="userSpaceOnUse" x="15" y="15" width="95" height="95">
<rect x="15.4166" y="15.4166" width="94.1667" height="94.1667" rx="47.0833" fill="#202124"/>
</mask>
<g mask="url(#mask0_1962_279874)">
<path d="M12.0833 62.5C12.0833 34.6557 34.6556 12.0833 62.5 12.0833V12.0833C90.3443 12.0833 112.917 34.6557 112.917 62.5V62.5C112.917 90.3444 90.3443 112.917 62.5 112.917V112.917C34.6556 112.917 12.0833 90.3444 12.0833 62.5V62.5Z" fill="#202124"/>
<path d="M15 75.1675C27.5759 99.3488 43.498 78.1574 49.1276 65.1171C55.7898 49.6874 58.3014 30.8955 58.3014 12.2698C58.3614 12.2638 58.4234 12.2578 58.4835 12.2538L59.278 12.1977C59.4101 12.1897 59.5421 12.1797 59.6762 12.1717C59.6762 71.157 42.4133 102.147 25.9889 94.7999C20.9357 89.2624 17.1273 82.5702 15 75.1675V75.1675Z" fill="#428EFF" stroke="#1A1B1F" stroke-width="0.7" stroke-linecap="round" stroke-linejoin="round"/>
<path d="M44.1564 107.4C37.174 104.606 30.976 100.265 25.9889 94.8019C42.4133 102.149 59.6762 71.159 59.6762 12.1737C59.7182 12.1717 59.7582 12.1677 59.8003 12.1657L60.919 12.1197C60.991 12.1177 61.065 12.1137 61.1371 12.1117C61.1371 46.3453 57.4748 93.433 44.1544 107.4H44.1564Z" fill="#FF5145" stroke="#1A1B1F" stroke-width="0.7" stroke-linecap="round" stroke-linejoin="round"/>
<path d="M61.1392 12.1097C61.1492 12.1097 61.1612 12.1097 61.1712 12.1097L62.5 12.0917V110.92C56.0179 110.92 49.828 109.669 44.1564 107.4C57.4768 93.431 61.1392 46.3453 61.1392 12.1117V12.1097Z" fill="#38A852" stroke="#1A1B1F" stroke-width="0.7" stroke-linecap="round" stroke-linejoin="round"/>
<path d="M110 75.1675C97.4241 99.3488 81.502 78.1574 75.8725 65.1171C69.2103 49.6874 66.6987 30.8955 66.6987 12.2698C66.6386 12.2638 66.5766 12.2578 66.5165 12.2538L65.722 12.1977C65.59 12.1897 65.4579 12.1797 65.3238 12.1717C65.3238 71.157 82.5867 102.147 99.0111 94.7999C104.064 89.2624 107.873 82.5702 110 75.1675V75.1675Z" fill="#EEEEEE" stroke="#1A1B1F" stroke-width="0.7" stroke-linecap="round" stroke-linejoin="round"/>
<path d="M80.8436 107.4C87.826 104.606 94.0239 100.265 99.0111 94.8019C82.5867 102.149 65.3238 71.159 65.3238 12.1737C65.2817 12.1717 65.2417 12.1677 65.1997 12.1657L64.081 12.1197C64.0089 12.1177 63.9349 12.1137 63.8629 12.1117C63.8629 46.3453 67.5252 93.433 80.8456 107.4H80.8436Z" fill="#202124" stroke="#1A1B1F" stroke-width="0.7" stroke-linecap="round" stroke-linejoin="round"/>
<path d="M63.8609 12.1097C63.8509 12.1097 63.8388 12.1097 63.8288 12.1097L62.5 12.0917V110.92C68.9821 110.92 75.172 109.669 80.8436 107.4C67.5232 93.431 63.8609 46.3453 63.8609 12.1117V12.1097Z" fill="#FFBB01" stroke="#1A1B1F" stroke-width="0.7" stroke-linecap="round" stroke-linejoin="round"/>
<mask id="path-12-inside-1_1962_279874" fill="white">
<path d="M31 8C31 6.34314 32.3431 5 34 5H91.2987C92.9556 5 94.2987 6.34315 94.2987 8V64.6411C94.2987 66.298 92.9556 67.6411 91.2987 67.6411H34C32.3431 67.6411 31 66.298 31 64.6411V8Z"/>
</mask>
<path d="M31 8C31 6.34314 32.3431 5 34 5H91.2987C92.9556 5 94.2987 6.34315 94.2987 8V64.6411C94.2987 66.298 92.9556 67.6411 91.2987 67.6411H34C32.3431 67.6411 31 66.298 31 64.6411V8Z" fill="#FFBB01"/>
<path d="M34 5.7H91.2987V4.3H34V5.7ZM93.5987 8V64.6411H94.9987V8H93.5987ZM91.2987 66.9411H34V68.3411H91.2987V66.9411ZM31.7 64.6411V8H30.3V64.6411H31.7ZM34 66.9411C32.7297 66.9411 31.7 65.9114 31.7 64.6411H30.3C30.3 66.6846 31.9565 68.3411 34 68.3411V66.9411ZM93.5987 64.6411C93.5987 65.9114 92.569 66.9411 91.2987 66.9411V68.3411C93.3422 68.3411 94.9987 66.6846 94.9987 64.6411H93.5987ZM91.2987 5.7C92.569 5.7 93.5987 6.72975 93.5987 8H94.9987C94.9987 5.95655 93.3422 4.3 91.2987 4.3V5.7ZM34 4.3C31.9565 4.3 30.3 5.95655 30.3 8H31.7C31.7 6.72974 32.7297 5.7 34 5.7V4.3Z" fill="#202124" mask="url(#path-12-inside-1_1962_279874)"/>
<path d="M63 38.444C72.3888 38.444 80 34.4467 80 29.5157C80 24.5847 72.3888 20.5874 63 20.5874C53.6112 20.5874 46 24.5847 46 29.5157C46 34.4467 53.6112 38.444 63 38.444Z" fill="#38A852" stroke="#1A1B1F" stroke-width="0.4" stroke-linecap="round" stroke-linejoin="round"/>
<path d="M63 37.3184C71.7409 37.3184 78.8268 33.825 78.8268 29.5157C78.8268 25.2064 71.7409 21.713 63 21.713C54.2591 21.713 47.1733 25.2064 47.1733 29.5157C47.1733 33.825 54.2591 37.3184 63 37.3184Z" fill="#DADCE0" stroke="#1A1B1F" stroke-width="0.4" stroke-linecap="round" stroke-linejoin="round"/>
<path d="M47.1738 29.5157H56.6907" stroke="#202124" stroke-width="0.4" stroke-linecap="round" stroke-linejoin="round"/>
<path d="M69.3099 29.5157H78.8268" stroke="#202124" stroke-width="0.4" stroke-linecap="round" stroke-linejoin="round"/>
<path d="M59.1242 25.4172H55.0026V33.6147H59.1242V25.4172Z" fill="#428EFF" stroke="#1A1B1F" stroke-width="0.4" stroke-linecap="round" stroke-linejoin="round"/>
<path d="M66.7691 33.7446C69.1046 33.7446 70.9979 31.8512 70.9979 29.5157C70.9979 27.1802 69.1046 25.2868 66.7691 25.2868C64.4335 25.2868 62.5402 27.1802 62.5402 29.5157C62.5402 31.8512 64.4335 33.7446 66.7691 33.7446Z" fill="#428EFF" stroke="#1A1B1F" stroke-width="0.4" stroke-linecap="round" stroke-linejoin="round"/>
<path d="M60.476 34.4876H59.6813L61.9423 24.5438H62.7369L60.476 34.4876Z" fill="#1A1B1F"/>
<path d="M51.265 31.6414C51.265 29.9356 50.845 29.5157 49.1392 29.5157C50.845 29.5157 51.265 29.0958 51.265 27.39C51.265 29.0958 51.6849 29.5157 53.3907 29.5157C51.6849 29.5157 51.265 29.9356 51.265 31.6414Z" fill="#FFBB01"/>
<path d="M51.265 31.6414C51.265 29.9356 50.845 29.5157 49.1392 29.5157C50.845 29.5157 51.265 29.0958 51.265 27.39C51.265 29.0958 51.6849 29.5157 53.3907 29.5157C51.6849 29.5157 51.265 29.9356 51.265 31.6414Z" stroke="#202124" stroke-width="0.4" stroke-linecap="round" stroke-linejoin="round"/>
<path d="M74.7356 31.6414C74.7356 29.9356 74.3157 29.5157 72.6099 29.5157C74.3157 29.5157 74.7356 29.0958 74.7356 27.39C74.7356 29.0958 75.1555 29.5157 76.8613 29.5157C75.1555 29.5157 74.7356 29.9356 74.7356 31.6414Z" fill="#FFBB01"/>
<path d="M74.7356 31.6414C74.7356 29.9356 74.3157 29.5157 72.6099 29.5157C74.3157 29.5157 74.7356 29.0958 74.7356 27.39C74.7356 29.0958 75.1555 29.5157 76.8613 29.5157C75.1555 29.5157 74.7356 29.9356 74.7356 31.6414Z" stroke="#202124" stroke-width="0.4" stroke-linecap="round" stroke-linejoin="round"/>
<path d="M36.8329 58.1667C37.3496 57.65 38.3746 56.6167 39.9079 55.0667C41.4412 53.5 42.5079 52.3917 43.1079 51.7417C43.9579 50.825 44.5329 50.1083 44.8329 49.5917C45.1329 49.075 45.2829 48.45 45.2829 47.7167C45.2829 47.2167 45.1496 46.75 44.8829 46.3167C44.6329 45.8667 44.2579 45.5083 43.7579 45.2417C43.2746 44.9583 42.6912 44.8167 42.0079 44.8167C41.1079 44.8167 40.3829 45.0833 39.8329 45.6167C39.2996 46.1333 38.9496 46.7 38.7829 47.3167L36.8329 46.5417C36.9996 46.0083 37.2996 45.4583 37.7329 44.8917C38.1662 44.3083 38.7496 43.8167 39.4829 43.4167C40.2162 43 41.0829 42.7917 42.0829 42.7917C43.1329 42.7917 44.0579 43.0167 44.8579 43.4667C45.6746 43.9167 46.3079 44.5167 46.7579 45.2667C47.2079 46.0167 47.4329 46.825 47.4329 47.6917C47.4329 49.4417 46.5162 51.25 44.6829 53.1167L39.5579 58.2667H47.6329V60.2917H36.8329V58.1667ZM56.6427 60.6917C55.2927 60.6917 54.0927 60.3 53.0427 59.5167C52.0093 58.7167 51.2093 57.6417 50.6427 56.2917C50.0927 54.925 49.8177 53.4083 49.8177 51.7417C49.8177 50.075 50.0927 48.5667 50.6427 47.2167C51.2093 45.85 52.0093 44.775 53.0427 43.9917C54.076 43.1917 55.276 42.7917 56.6427 42.7917C58.0093 42.7917 59.2093 43.1917 60.2427 43.9917C61.276 44.775 62.0677 45.85 62.6177 47.2167C63.1843 48.5667 63.4677 50.075 63.4677 51.7417C63.4677 53.4083 63.1843 54.925 62.6177 56.2917C62.0677 57.6417 61.2677 58.7167 60.2177 59.5167C59.1843 60.3 57.9927 60.6917 56.6427 60.6917ZM56.6427 58.6667C57.5927 58.6667 58.4177 58.3667 59.1177 57.7667C59.8177 57.15 60.3593 56.3167 60.7427 55.2667C61.126 54.2167 61.3177 53.0417 61.3177 51.7417C61.3177 50.4417 61.126 49.2667 60.7427 48.2167C60.3593 47.1667 59.8177 46.3417 59.1177 45.7417C58.4177 45.125 57.5927 44.8167 56.6427 44.8167C55.6927 44.8167 54.8677 45.125 54.1677 45.7417C53.4677 46.3417 52.926 47.1667 52.5427 48.2167C52.1593 49.2667 51.9677 50.4417 51.9677 51.7417C51.9677 53.0417 52.1593 54.2167 52.5427 55.2667C52.926 56.3167 53.4677 57.15 54.1677 57.7667C54.8677 58.3667 55.6927 58.6667 56.6427 58.6667ZM65.3368 58.1667C65.8535 57.65 66.8785 56.6167 68.4118 55.0667C69.9451 53.5 71.0118 52.3917 71.6118 51.7417C72.4618 50.825 73.0368 50.1083 73.3368 49.5917C73.6368 49.075 73.7868 48.45 73.7868 47.7167C73.7868 47.2167 73.6535 46.75 73.3868 46.3167C73.1368 45.8667 72.7618 45.5083 72.2618 45.2417C71.7785 44.9583 71.1951 44.8167 70.5118 44.8167C69.6118 44.8167 68.8868 45.0833 68.3368 45.6167C67.8035 46.1333 67.4535 46.7 67.2868 47.3167L65.3368 46.5417C65.5035 46.0083 65.8035 45.4583 66.2368 44.8917C66.6701 44.3083 67.2535 43.8167 67.9868 43.4167C68.7201 43 69.5868 42.7917 70.5868 42.7917C71.6368 42.7917 72.5618 43.0167 73.3618 43.4667C74.1785 43.9167 74.8118 44.5167 75.2618 45.2667C75.7118 46.0167 75.9368 46.825 75.9368 47.6917C75.9368 49.4417 75.0201 51.25 73.1868 53.1167L68.0618 58.2667H76.1368V60.2917H65.3368V58.1667ZM83.6216 60.6917C82.9049 60.6917 82.1716 60.5417 81.4216 60.2417C80.6716 59.9417 79.9882 59.475 79.3716 58.8417C78.7716 58.1917 78.3382 57.3833 78.0716 56.4167L79.9966 55.6167C80.2632 56.5833 80.7132 57.3333 81.3466 57.8667C81.9966 58.4 82.7549 58.6667 83.6216 58.6667C84.2549 58.6667 84.8466 58.5333 85.3966 58.2667C85.9466 57.9833 86.3799 57.6 86.6966 57.1167C87.0299 56.6167 87.1966 56.0667 87.1966 55.4667C87.1966 54.8833 87.0299 54.35 86.6966 53.8667C86.3799 53.3833 85.9382 53.0083 85.3716 52.7417C84.8216 52.4583 84.2132 52.3167 83.5466 52.3167H82.0716V50.3417H83.3966C84.3132 50.3417 85.0799 50.0833 85.6966 49.5667C86.3132 49.0333 86.6216 48.3333 86.6216 47.4667C86.6216 46.6667 86.3216 46.025 85.7216 45.5417C85.1216 45.0583 84.3799 44.8167 83.4966 44.8167C82.6299 44.8167 81.9466 45.0417 81.4466 45.4917C80.9632 45.9417 80.6132 46.4917 80.3966 47.1417L78.4466 46.3167C78.7466 45.4167 79.3216 44.6083 80.1716 43.8917C81.0382 43.1583 82.1466 42.7917 83.4966 42.7917C84.4966 42.7917 85.3966 42.9917 86.1966 43.3917C86.9966 43.7917 87.6216 44.35 88.0716 45.0667C88.5382 45.7833 88.7716 46.5833 88.7716 47.4667C88.7716 48.35 88.5466 49.1 88.0966 49.7167C87.6466 50.3333 87.0882 50.8167 86.4216 51.1667V51.2667C87.2716 51.6167 87.9716 52.1583 88.5216 52.8917C89.0716 53.6083 89.3466 54.4583 89.3466 55.4417C89.3466 56.4417 89.0882 57.3417 88.5716 58.1417C88.0716 58.9417 87.3799 59.5667 86.4966 60.0167C85.6299 60.4667 84.6716 60.6917 83.6216 60.6917Z" fill="#428EFF"/>
<path d="M36.8329 58.1667L36.6208 57.9545C36.5645 58.0108 36.5329 58.0871 36.5329 58.1667H36.8329ZM39.9079 55.0667L40.1212 55.2776L40.1223 55.2765L39.9079 55.0667ZM43.1079 51.7417L42.8879 51.5377L42.8874 51.5382L43.1079 51.7417ZM44.8329 49.5917L44.5734 49.441L44.5734 49.441L44.8329 49.5917ZM44.8829 46.3167L44.6204 46.4625L44.6274 46.4739L44.8829 46.3167ZM43.7579 45.2417L43.606 45.5007L43.6167 45.5064L43.7579 45.2417ZM39.8329 45.6167L40.0416 45.8321L40.0417 45.832L39.8329 45.6167ZM38.7829 47.3167L38.6721 47.5954C38.7516 47.627 38.8407 47.6232 38.9172 47.5849C38.9937 47.5466 39.0502 47.4775 39.0725 47.3949L38.7829 47.3167ZM36.8329 46.5417L36.5465 46.4522C36.4997 46.6019 36.5763 46.7625 36.7221 46.8204L36.8329 46.5417ZM37.7329 44.8917L37.9712 45.0739L37.9737 45.0706L37.7329 44.8917ZM39.4829 43.4167L39.6266 43.6801L39.6311 43.6775L39.4829 43.4167ZM44.8579 43.4667L44.7108 43.7281L44.7131 43.7294L44.8579 43.4667ZM46.7579 45.2667L46.5006 45.421L46.5006 45.421L46.7579 45.2667ZM44.6829 53.1167L44.8955 53.3283L44.8969 53.3269L44.6829 53.1167ZM39.5579 58.2667L39.3452 58.055C39.2597 58.141 39.2343 58.2699 39.2809 58.3818C39.3274 58.4937 39.4367 58.5667 39.5579 58.5667V58.2667ZM47.6329 58.2667H47.9329C47.9329 58.101 47.7986 57.9667 47.6329 57.9667V58.2667ZM47.6329 60.2917V60.5917C47.7986 60.5917 47.9329 60.4573 47.9329 60.2917H47.6329ZM36.8329 60.2917H36.5329C36.5329 60.4573 36.6672 60.5917 36.8329 60.5917V60.2917ZM37.045 58.3788C37.5624 57.8615 38.5879 56.8275 40.1212 55.2776L39.6946 54.8557C38.1612 56.4058 37.1368 57.4385 36.6208 57.9545L37.045 58.3788ZM40.1223 55.2765C41.6556 53.7099 42.725 52.5987 43.3283 51.9451L42.8874 51.5382C42.2908 52.1846 41.2269 53.2901 39.6935 54.8568L40.1223 55.2765ZM43.3279 51.9456C44.1803 51.0263 44.7746 50.2894 45.0923 49.7423L44.5734 49.441C44.2911 49.9272 43.7355 50.6236 42.8879 51.5377L43.3279 51.9456ZM45.0923 49.7423C45.4243 49.1705 45.5829 48.4909 45.5829 47.7167H44.9829C44.9829 48.409 44.8415 48.9794 44.5734 49.441L45.0923 49.7423ZM45.5829 47.7167C45.5829 47.1601 45.4336 46.6392 45.1384 46.1594L44.6274 46.4739C44.8655 46.8608 44.9829 47.2732 44.9829 47.7167H45.5829ZM45.1451 46.171C44.8643 45.6654 44.4447 45.268 43.8991 44.9769L43.6167 45.5064C44.0711 45.7487 44.4015 46.0679 44.6206 46.4623L45.1451 46.171ZM43.9096 44.9828C43.3711 44.6672 42.7329 44.5167 42.0079 44.5167V45.1167C42.6496 45.1167 43.178 45.2495 43.6062 45.5005L43.9096 44.9828ZM42.0079 44.5167C41.0445 44.5167 40.2397 44.8043 39.624 45.4013L40.0417 45.832C40.5261 45.3624 41.1712 45.1167 42.0079 45.1167V44.5167ZM39.6241 45.4012C39.0584 45.9493 38.6762 46.5616 38.4933 47.2384L39.0725 47.3949C39.2229 46.8384 39.5407 46.3174 40.0416 45.8321L39.6241 45.4012ZM38.8937 47.0379L36.9437 46.2629L36.7221 46.8204L38.6721 47.5954L38.8937 47.0379ZM37.1192 46.6311C37.273 46.1391 37.5536 45.62 37.9712 45.0739L37.4946 44.7094C37.0456 45.2966 36.7261 45.8775 36.5465 46.4522L37.1192 46.6311ZM37.9737 45.0706C38.3775 44.5269 38.9256 44.0623 39.6265 43.68L39.3392 43.1533C38.5735 43.571 37.9549 44.0897 37.4921 44.7128L37.9737 45.0706ZM39.6311 43.6775C40.3115 43.2909 41.1252 43.0917 42.0829 43.0917V42.4917C41.0406 42.4917 40.1209 42.7091 39.3347 43.1558L39.6311 43.6775ZM42.0829 43.0917C43.0889 43.0917 43.9618 43.3068 44.7108 43.7281L45.005 43.2052C44.1539 42.7265 43.1769 42.4917 42.0829 42.4917V43.0917ZM44.7131 43.7294C45.4865 44.1556 46.0797 44.7195 46.5006 45.421L47.0151 45.1123C46.5361 44.3139 45.8626 43.6777 45.0027 43.2039L44.7131 43.7294ZM46.5006 45.421C46.9229 46.1248 47.1329 46.8799 47.1329 47.6917H47.7329C47.7329 46.7701 47.4928 45.9085 47.0151 45.1123L46.5006 45.421ZM47.1329 47.6917C47.1329 49.3315 46.274 51.0685 44.4689 52.9064L44.8969 53.3269C46.7584 51.4315 47.7329 49.5518 47.7329 47.6917H47.1329ZM44.4702 52.905L39.3452 58.055L39.7705 58.4783L44.8955 53.3283L44.4702 52.905ZM39.5579 58.5667H47.6329V57.9667H39.5579V58.5667ZM47.3329 58.2667V60.2917H47.9329V58.2667H47.3329ZM47.6329 59.9917H36.8329V60.5917H47.6329V59.9917ZM37.1329 60.2917V58.1667H36.5329V60.2917H37.1329ZM53.0427 59.5167L52.859 59.7539L52.8633 59.7571L53.0427 59.5167ZM50.6427 56.2917L50.3643 56.4037L50.366 56.4078L50.6427 56.2917ZM50.6427 47.2167L50.3655 47.1017L50.3648 47.1035L50.6427 47.2167ZM53.0427 43.9917L53.2239 44.2307L53.2263 44.2289L53.0427 43.9917ZM60.2427 43.9917L60.059 44.2289L60.0614 44.2307L60.2427 43.9917ZM62.6177 47.2167L62.3393 47.3287L62.341 47.3328L62.6177 47.2167ZM62.6177 56.2917L62.3405 56.1767L62.3398 56.1785L62.6177 56.2917ZM60.2177 59.5167L60.3989 59.7557L60.3995 59.7553L60.2177 59.5167ZM59.1177 57.7667L59.3129 57.9945L59.316 57.9918L59.1177 57.7667ZM60.7427 55.2667L61.0245 55.3695L61.0245 55.3695L60.7427 55.2667ZM60.7427 48.2167L61.0245 48.1138L61.0245 48.1138L60.7427 48.2167ZM59.1177 45.7417L58.9193 45.9668L58.9224 45.9694L59.1177 45.7417ZM54.1677 45.7417L54.3629 45.9695L54.366 45.9668L54.1677 45.7417ZM54.1677 57.7667L53.9693 57.9918L53.9724 57.9944L54.1677 57.7667ZM56.6427 60.3917C55.3552 60.3917 54.2185 60.0196 53.222 59.2762L52.8633 59.7571C53.9668 60.5804 55.2301 60.9917 56.6427 60.9917V60.3917ZM53.2263 59.2794C52.2386 58.5148 51.4684 57.4837 50.9193 56.1755L50.366 56.4078C50.9503 57.7996 51.78 58.9185 52.859 59.7539L53.2263 59.2794ZM50.921 56.1797C50.387 54.853 50.1177 53.375 50.1177 51.7417H49.5177C49.5177 53.4417 49.7983 54.997 50.3643 56.4037L50.921 56.1797ZM50.1177 51.7417C50.1177 50.1083 50.3871 48.6391 50.9205 47.3298L50.3648 47.1035C49.7982 48.4942 49.5177 50.0417 49.5177 51.7417H50.1177ZM50.9198 47.3316C51.469 46.007 52.2387 44.9776 53.2239 44.2307L52.8614 43.7526C51.78 44.5724 50.9497 45.693 50.3655 47.1018L50.9198 47.3316ZM53.2263 44.2289C54.2045 43.4715 55.3392 43.0917 56.6427 43.0917V42.4917C55.2128 42.4917 53.9474 42.9118 52.859 43.7544L53.2263 44.2289ZM56.6427 43.0917C57.9461 43.0917 59.0808 43.4715 60.059 44.2289L60.4263 43.7544C59.3379 42.9118 58.0725 42.4917 56.6427 42.4917V43.0917ZM60.0614 44.2307C61.0459 44.977 61.8068 46.0054 62.3393 47.3287L62.896 47.1047C62.3285 45.6946 61.5061 44.573 60.4239 43.7526L60.0614 44.2307ZM62.341 47.3328C62.8903 48.6413 63.1677 50.1094 63.1677 51.7417H63.7677C63.7677 50.0406 63.4784 48.4921 62.8943 47.1005L62.341 47.3328ZM63.1677 51.7417C63.1677 53.3739 62.8903 54.8508 62.3405 56.1768L62.8948 56.4066C63.4783 54.9991 63.7677 53.4428 63.7677 51.7417H63.1677ZM62.3398 56.1785C61.8079 57.4842 61.0389 58.5138 60.0358 59.278L60.3995 59.7553C61.4965 58.9195 62.3274 57.7992 62.8955 56.4048L62.3398 56.1785ZM60.0364 59.2776C59.0575 60.0197 57.9301 60.3917 56.6427 60.3917V60.9917C58.0552 60.9917 59.3111 60.5803 60.3989 59.7557L60.0364 59.2776ZM56.6427 58.9667C57.6619 58.9667 58.5567 58.6426 59.3129 57.9944L58.9224 57.5389C58.2786 58.0907 57.5234 58.3667 56.6427 58.3667V58.9667ZM59.316 57.9918C60.0604 57.336 60.6273 56.4573 61.0245 55.3695L60.4608 55.1638C60.0913 56.176 59.575 56.964 58.9193 57.5415L59.316 57.9918ZM61.0245 55.3695C61.4216 54.2817 61.6177 53.0711 61.6177 51.7417H61.0177C61.0177 53.0122 60.8304 54.1516 60.4608 55.1638L61.0245 55.3695ZM61.6177 51.7417C61.6177 50.4122 61.4216 49.2016 61.0245 48.1138L60.4608 48.3195C60.8304 49.3317 61.0177 50.4711 61.0177 51.7417H61.6177ZM61.0245 48.1138C60.6272 47.0256 60.0595 46.1538 59.3129 45.5139L58.9224 45.9694C59.5758 46.5295 60.0914 47.3077 60.4608 48.3195L61.0245 48.1138ZM59.316 45.5165C58.5601 44.8507 57.6642 44.5167 56.6427 44.5167V45.1167C57.5211 45.1167 58.2752 45.3993 58.9193 45.9668L59.316 45.5165ZM56.6427 44.5167C55.6211 44.5167 54.7252 44.8507 53.9693 45.5165L54.366 45.9668C55.0101 45.3993 55.7642 45.1167 56.6427 45.1167V44.5167ZM53.9724 45.5139C53.2258 46.1538 52.6581 47.0256 52.2608 48.1138L52.8245 48.3195C53.1939 47.3077 53.7095 46.5295 54.3629 45.9694L53.9724 45.5139ZM52.2608 48.1138C51.8637 49.2016 51.6677 50.4122 51.6677 51.7417H52.2677C52.2677 50.4711 52.4549 49.3317 52.8245 48.3195L52.2608 48.1138ZM51.6677 51.7417C51.6677 53.0711 51.8637 54.2817 52.2608 55.3695L52.8245 55.1638C52.4549 54.1516 52.2677 53.0122 52.2677 51.7417H51.6677ZM52.2608 55.3695C52.658 56.4573 53.225 57.336 53.9693 57.9918L54.366 57.5415C53.7104 56.964 53.194 56.176 52.8245 55.1638L52.2608 55.3695ZM53.9724 57.9944C54.7286 58.6426 55.6234 58.9667 56.6427 58.9667V58.3667C55.7619 58.3667 55.0067 58.0907 54.3629 57.5389L53.9724 57.9944ZM65.3368 58.1667L65.1247 57.9545C65.0684 58.0108 65.0368 58.0871 65.0368 58.1667H65.3368ZM68.4118 55.0667L68.6251 55.2776L68.6262 55.2765L68.4118 55.0667ZM71.6118 51.7417L71.3918 51.5377L71.3914 51.5382L71.6118 51.7417ZM73.3368 49.5917L73.0774 49.441L73.0774 49.441L73.3368 49.5917ZM73.3868 46.3167L73.1243 46.4625L73.1313 46.4739L73.3868 46.3167ZM72.2618 45.2417L72.11 45.5007L72.1206 45.5064L72.2618 45.2417ZM68.3368 45.6167L68.5455 45.8321L68.5456 45.832L68.3368 45.6167ZM67.2868 47.3167L67.176 47.5954C67.2555 47.627 67.3447 47.6232 67.4211 47.5849C67.4976 47.5466 67.5541 47.4775 67.5764 47.3949L67.2868 47.3167ZM65.3368 46.5417L65.0504 46.4522C65.0036 46.6019 65.0802 46.7625 65.226 46.8204L65.3368 46.5417ZM66.2368 44.8917L66.4751 45.0739L66.4776 45.0706L66.2368 44.8917ZM67.9868 43.4167L68.1305 43.6801L68.135 43.6775L67.9868 43.4167ZM73.3618 43.4667L73.2147 43.7281L73.217 43.7294L73.3618 43.4667ZM75.2618 45.2667L75.0045 45.421L75.0045 45.421L75.2618 45.2667ZM73.1868 53.1167L73.3994 53.3283L73.4008 53.3269L73.1868 53.1167ZM68.0618 58.2667L67.8491 58.055C67.7636 58.141 67.7382 58.2699 67.7848 58.3818C67.8313 58.4937 67.9406 58.5667 68.0618 58.5667V58.2667ZM76.1368 58.2667H76.4368C76.4368 58.101 76.3025 57.9667 76.1368 57.9667V58.2667ZM76.1368 60.2917V60.5917C76.3025 60.5917 76.4368 60.4573 76.4368 60.2917H76.1368ZM65.3368 60.2917H65.0368C65.0368 60.4573 65.1711 60.5917 65.3368 60.5917V60.2917ZM65.5489 58.3788C66.0663 57.8615 67.0918 56.8275 68.6251 55.2776L68.1985 54.8557C66.6651 56.4058 65.6407 57.4385 65.1247 57.9545L65.5489 58.3788ZM68.6262 55.2765C70.1595 53.7099 71.2289 52.5987 71.8322 51.9451L71.3914 51.5382C70.7947 52.1846 69.7308 53.2901 68.1974 54.8568L68.6262 55.2765ZM71.8318 51.9456C72.6842 51.0263 73.2786 50.2894 73.5962 49.7423L73.0774 49.441C72.795 49.9272 72.2394 50.6236 71.3918 51.5377L71.8318 51.9456ZM73.5962 49.7423C73.9282 49.1705 74.0868 48.4909 74.0868 47.7167H73.4868C73.4868 48.409 73.3454 48.9794 73.0774 49.441L73.5962 49.7423ZM74.0868 47.7167C74.0868 47.1601 73.9375 46.6392 73.6423 46.1594L73.1313 46.4739C73.3694 46.8608 73.4868 47.2732 73.4868 47.7167H74.0868ZM73.649 46.171C73.3682 45.6654 72.9486 45.268 72.403 44.9769L72.1206 45.5064C72.575 45.7487 72.9054 46.0679 73.1245 46.4623L73.649 46.171ZM72.4135 44.9828C71.875 44.6672 71.2368 44.5167 70.5118 44.5167V45.1167C71.1535 45.1167 71.6819 45.2495 72.1101 45.5005L72.4135 44.9828ZM70.5118 44.5167C69.5484 44.5167 68.7436 44.8043 68.1279 45.4013L68.5456 45.832C69.03 45.3624 69.6751 45.1167 70.5118 45.1167V44.5167ZM68.1281 45.4012C67.5623 45.9493 67.1801 46.5616 66.9972 47.2384L67.5764 47.3949C67.7268 46.8384 68.0446 46.3174 68.5455 45.8321L68.1281 45.4012ZM67.3976 47.0379L65.4476 46.2629L65.226 46.8204L67.176 47.5954L67.3976 47.0379ZM65.6231 46.6311C65.7769 46.1391 66.0575 45.62 66.4751 45.0739L65.9985 44.7094C65.5495 45.2966 65.23 45.8775 65.0504 46.4522L65.6231 46.6311ZM66.4776 45.0706C66.8815 44.5269 67.4295 44.0623 68.1304 43.68L67.8431 43.1533C67.0774 43.571 66.4588 44.0897 65.996 44.7128L66.4776 45.0706ZM68.135 43.6775C68.8154 43.2909 69.6291 43.0917 70.5868 43.0917V42.4917C69.5445 42.4917 68.6248 42.7091 67.8386 43.1558L68.135 43.6775ZM70.5868 43.0917C71.5928 43.0917 72.4657 43.3068 73.2147 43.7281L73.5089 43.2052C72.6578 42.7265 71.6808 42.4917 70.5868 42.4917V43.0917ZM73.217 43.7294C73.9905 44.1556 74.5836 44.7195 75.0045 45.421L75.519 45.1123C75.04 44.3139 74.3665 43.6777 73.5066 43.2039L73.217 43.7294ZM75.0045 45.421C75.4268 46.1248 75.6368 46.8799 75.6368 47.6917H76.2368C76.2368 46.7701 75.9967 45.9085 75.519 45.1123L75.0045 45.421ZM75.6368 47.6917C75.6368 49.3315 74.7779 51.0685 72.9728 52.9064L73.4008 53.3269C75.2623 51.4315 76.2368 49.5518 76.2368 47.6917H75.6368ZM72.9741 52.905L67.8491 58.055L68.2744 58.4783L73.3994 53.3283L72.9741 52.905ZM68.0618 58.5667H76.1368V57.9667H68.0618V58.5667ZM75.8368 58.2667V60.2917H76.4368V58.2667H75.8368ZM76.1368 59.9917H65.3368V60.5917H76.1368V59.9917ZM65.6368 60.2917V58.1667H65.0368V60.2917H65.6368ZM81.4216 60.2417L81.3101 60.5202L81.4216 60.2417ZM79.3716 58.8417L79.151 59.0452L79.1566 59.0509L79.3716 58.8417ZM78.0716 56.4167L77.9564 56.1396C77.8168 56.1977 77.7421 56.3506 77.7824 56.4964L78.0716 56.4167ZM79.9966 55.6167L80.2858 55.5369C80.2629 55.4539 80.2054 55.3848 80.1281 55.347C80.0507 55.3093 79.9609 55.3066 79.8814 55.3396L79.9966 55.6167ZM81.3466 57.8667L81.1533 58.0961L81.1563 58.0986L81.3466 57.8667ZM85.3966 58.2667L85.5275 58.5367L85.5339 58.5333L85.3966 58.2667ZM86.6966 57.1167L86.4469 56.9502L86.4456 56.9522L86.6966 57.1167ZM86.6966 53.8667L86.4455 54.0311L86.4496 54.037L86.6966 53.8667ZM85.3716 52.7417L85.2341 53.0085L85.2438 53.0131L85.3716 52.7417ZM82.0716 52.3167H81.7716C81.7716 52.4823 81.9059 52.6167 82.0716 52.6167V52.3167ZM82.0716 50.3417V50.0417C81.9059 50.0417 81.7716 50.176 81.7716 50.3417H82.0716ZM85.6966 49.5667L85.8892 49.7966L85.8928 49.7936L85.6966 49.5667ZM85.7216 45.5417L85.9098 45.308L85.9098 45.308L85.7216 45.5417ZM81.4466 45.4917L81.2458 45.2686L81.2421 45.2721L81.4466 45.4917ZM80.3966 47.1417L80.2797 47.4179C80.3567 47.4505 80.4439 47.4495 80.5201 47.415C80.5963 47.3806 80.6547 47.3159 80.6812 47.2365L80.3966 47.1417ZM78.4466 46.3167L78.162 46.2218C78.1124 46.3703 78.1855 46.5319 78.3297 46.5929L78.4466 46.3167ZM80.1716 43.8917L80.3649 44.121L80.3653 44.1207L80.1716 43.8917ZM86.1966 43.3917L86.3307 43.1233L86.3307 43.1233L86.1966 43.3917ZM88.0716 45.0667L87.8175 45.2262L87.8202 45.2304L88.0716 45.0667ZM88.0966 49.7167L88.3389 49.8935L88.3389 49.8935L88.0966 49.7167ZM86.4216 51.1667L86.2821 50.901C86.1834 50.9529 86.1216 51.0552 86.1216 51.1667H86.4216ZM86.4216 51.2667H86.1216C86.1216 51.3882 86.1949 51.4978 86.3073 51.5441L86.4216 51.2667ZM88.5216 52.8917L88.2815 53.0717L88.2836 53.0743L88.5216 52.8917ZM88.5716 58.1417L88.3195 57.9789L88.3172 57.9827L88.5716 58.1417ZM86.4966 60.0167L86.3604 59.7493L86.3583 59.7504L86.4966 60.0167ZM83.6216 60.3917C82.9476 60.3917 82.252 60.2507 81.533 59.9631L81.3101 60.5202C82.0911 60.8326 82.8622 60.9917 83.6216 60.9917V60.3917ZM81.533 59.9631C80.8255 59.6801 80.1767 59.2385 79.5865 58.6324L79.1566 59.0509C79.7998 59.7115 80.5176 60.2032 81.3101 60.5202L81.533 59.9631ZM79.592 58.6382C79.0286 58.0278 78.6164 57.2636 78.3608 56.3369L77.7824 56.4964C78.06 57.503 78.5145 58.3555 79.1511 59.0451L79.592 58.6382ZM78.1867 56.6937L80.1117 55.8937L79.8814 55.3396L77.9564 56.1396L78.1867 56.6937ZM79.7074 55.6964C79.9867 56.709 80.4646 57.5161 81.1533 58.0961L81.5398 57.6372C80.9619 57.1505 80.5398 56.4576 80.2858 55.5369L79.7074 55.6964ZM81.1563 58.0986C81.8617 58.6774 82.6878 58.9667 83.6216 58.9667V58.3667C82.822 58.3667 82.1314 58.1226 81.5369 57.6347L81.1563 58.0986ZM83.6216 58.9667C84.2985 58.9667 84.9352 58.8238 85.5274 58.5366L85.2657 57.9967C84.758 58.2429 84.2112 58.3667 83.6216 58.3667V58.9667ZM85.5339 58.5333C86.1266 58.228 86.6004 57.8108 86.9475 57.2811L86.4456 56.9522C86.1593 57.3892 85.7665 57.7386 85.2592 58L85.5339 58.5333ZM86.9462 57.2831C87.3123 56.7339 87.4966 56.126 87.4966 55.4667H86.8966C86.8966 56.0073 86.7475 56.4994 86.4469 56.9502L86.9462 57.2831ZM87.4966 55.4667C87.4966 54.8221 87.3112 54.2294 86.9435 53.6963L86.4496 54.037C86.7486 54.4706 86.8966 54.9446 86.8966 55.4667H87.4966ZM86.9475 53.7022C86.5979 53.1687 86.1118 52.7584 85.4993 52.4702L85.2438 53.0131C85.7647 53.2582 86.1619 53.598 86.4456 54.0311L86.9475 53.7022ZM85.5089 52.475C84.9132 52.1681 84.2572 52.0167 83.5466 52.0167V52.6167C84.1692 52.6167 84.7299 52.7486 85.2342 53.0083L85.5089 52.475ZM83.5466 52.0167H82.0716V52.6167H83.5466V52.0167ZM82.3716 52.3167V50.3417H81.7716V52.3167H82.3716ZM82.0716 50.6417H83.3966V50.0417H82.0716V50.6417ZM83.3966 50.6417C84.3733 50.6417 85.2111 50.3648 85.8892 49.7966L85.5039 49.3367C84.9487 49.8019 84.2532 50.0417 83.3966 50.0417V50.6417ZM85.8928 49.7936C86.5799 49.1993 86.9216 48.4142 86.9216 47.4667H86.3216C86.3216 48.2524 86.0465 48.8674 85.5003 49.3397L85.8928 49.7936ZM86.9216 47.4667C86.9216 46.5799 86.5835 45.8508 85.9098 45.308L85.5334 45.7753C86.0596 46.1992 86.3216 46.7534 86.3216 47.4667H86.9216ZM85.9098 45.308C85.2488 44.7756 84.4378 44.5167 83.4966 44.5167V45.1167C84.322 45.1167 84.9944 45.3411 85.5334 45.7753L85.9098 45.308ZM83.4966 44.5167C82.5778 44.5167 81.8154 44.7561 81.2459 45.2687L81.6472 45.7146C82.0777 45.3272 82.682 45.1167 83.4966 45.1167V44.5167ZM81.2421 45.2721C80.7207 45.7576 80.3439 46.351 80.112 47.0468L80.6812 47.2365C80.8826 46.6323 81.2058 46.1257 81.651 45.7112L81.2421 45.2721ZM80.5134 46.8654L78.5634 46.0404L78.3297 46.5929L80.2797 47.4179L80.5134 46.8654ZM78.7312 46.4115C79.0109 45.5723 79.5498 44.8083 80.3649 44.121L79.9782 43.6623C79.0933 44.4083 78.4822 45.261 78.162 46.2218L78.7312 46.4115ZM80.3653 44.1207C81.168 43.4415 82.2035 43.0917 83.4966 43.0917V42.4917C82.0897 42.4917 80.9085 42.8751 79.9778 43.6626L80.3653 44.1207ZM83.4966 43.0917C84.4555 43.0917 85.3088 43.2832 86.0624 43.66L86.3307 43.1233C85.4844 42.7001 84.5376 42.4917 83.4966 42.4917V43.0917ZM86.0624 43.66C86.8161 44.0369 87.3984 44.5588 87.8175 45.2262L88.3256 44.9071C87.8447 44.1412 87.177 43.5465 86.3307 43.1233L86.0624 43.66ZM87.8202 45.2304C88.254 45.8967 88.4716 46.6394 88.4716 47.4667H89.0716C89.0716 46.5272 88.8224 45.67 88.323 44.903L87.8202 45.2304ZM88.4716 47.4667C88.4716 48.2968 88.2611 48.9823 87.8542 49.5398L88.3389 49.8935C88.832 49.2177 89.0716 48.4032 89.0716 47.4667H88.4716ZM87.8542 49.5398C87.4309 50.1199 86.9076 50.5727 86.2821 50.901L86.561 51.4323C87.2689 51.0606 87.8622 50.5467 88.3389 49.8935L87.8542 49.5398ZM86.1216 51.1667V51.2667H86.7216V51.1667H86.1216ZM86.3073 51.5441C87.1076 51.8736 87.764 52.3816 88.2816 53.0717L88.7616 52.7117C88.1791 51.935 87.4356 51.3597 86.5358 50.9893L86.3073 51.5441ZM88.2836 53.0743C88.7897 53.7339 89.0466 54.5182 89.0466 55.4417H89.6466C89.6466 54.3985 89.3534 53.4828 88.7596 52.709L88.2836 53.0743ZM89.0466 55.4417C89.0466 56.387 88.8033 57.2299 88.3195 57.9789L88.8236 58.3044C89.3732 57.4534 89.6466 56.4964 89.6466 55.4417H89.0466ZM88.3172 57.9827C87.8475 58.7341 87.1978 59.3227 86.3604 59.7493L86.6327 60.284C87.562 59.8106 88.2956 59.1492 88.826 58.3007L88.3172 57.9827ZM86.3583 59.7504C85.5375 60.1766 84.6271 60.3917 83.6216 60.3917V60.9917C84.716 60.9917 85.7223 60.7567 86.6348 60.2829L86.3583 59.7504Z" fill="#202124"/>
<circle cx="31.5" cy="39.5" r="2.5" fill="#202124"/>
<circle cx="93.7916" cy="39.5" r="2.5" fill="#202124"/>
</g>
<path d="M62.5 109.542C36.6353 109.542 15.6666 88.4702 15.6666 62.6041C15.6666 36.7381 36.6353 15.6666 62.5 15.6666C88.3646 15.6666 109.333 36.7381 109.333 62.6041C109.333 88.4702 88.3646 109.542 62.5 109.542Z" stroke="#202124" stroke-width="0.5"/>
</g>
</g>
<rect x="13.5683" y="13.5683" width="97.8634" height="97.8634" rx="48.9317" stroke="white" stroke-width="3.13665"/>
</g>
<defs>
<filter id="filter0_d_1962_279874" x="6.98137" y="6.98137" width="111.037" height="111.037" filterUnits="userSpaceOnUse" color-interpolation-filters="sRGB">
<feFlood flood-opacity="0" result="BackgroundImageFix"/>
<feColorMatrix in="SourceAlpha" type="matrix" values="0 0 0 0 0 0 0 0 0 0 0 0 0 0 0 0 0 0 127 0" result="hardAlpha"/>
<feOffset/>
<feGaussianBlur stdDeviation="2.50932"/>
<feColorMatrix type="matrix" values="0 0 0 0 0 0 0 0 0 0 0 0 0 0 0 0 0 0 0.25 0"/>
<feBlend mode="normal" in2="BackgroundImageFix" result="effect1_dropShadow_1962_279874"/>
<feBlend mode="normal" in="SourceGraphic" in2="effect1_dropShadow_1962_279874" result="shape"/>
</filter>
<filter id="filter1_d_1962_279874" x="8.54163" y="8.54166" width="108.125" height="108.125" filterUnits="userSpaceOnUse" color-interpolation-filters="sRGB">
<feFlood flood-opacity="0" result="BackgroundImageFix"/>
<feColorMatrix in="SourceAlpha" type="matrix" values="0 0 0 0 0 0 0 0 0 0 0 0 0 0 0 0 0 0 127 0" result="hardAlpha"/>
<feOffset/>
<feGaussianBlur stdDeviation="1.875"/>
<feComposite in2="hardAlpha" operator="out"/>
<feColorMatrix type="matrix" values="0 0 0 0 0 0 0 0 0 0 0 0 0 0 0 0 0 0 0.2 0"/>
<feBlend mode="normal" in2="BackgroundImageFix" result="effect1_dropShadow_1962_279874"/>
<feBlend mode="normal" in="SourceGraphic" in2="effect1_dropShadow_1962_279874" result="shape"/>
</filter>
<clipPath id="clip0_1962_279874">
<rect x="12" y="12" width="101" height="101" rx="50.5" fill="white"/>
</clipPath>
</defs>
</svg>
